<svg width="98" height="98" viewBox="0 0 98 98" fill="none" xmlns="http://www.w3.org/2000/svg">
<g clip-path="url(#clip0)">
<path d="M2.04167 98.3H95.9583C96.6506 98.3 97.2433 97.8871 97.6498 97.2898C98.0574 96.6909 98.3 95.8803 98.3 95C98.3 94.1197 98.0574 93.3091 97.6498 92.7102C97.2433 92.1129 96.6506 91.7 95.9583 91.7H2.04167C1.34943 91.7 0.756698 92.1129 0.350194 92.7102C-0.0574134 93.3091 -0.3 94.1197 -0.3 95C-0.3 95.8803 -0.0574134 96.6909 0.350194 97.2898C0.756698 97.8871 1.34943 98.3 2.04167 98.3Z" fill="white" stroke="white" stroke-width="0.6"/>
<path d="M6.08333 98.3H26.9167C27.6209 98.3 28.224 97.8786 28.6379 97.2685C29.0529 96.6567 29.3 95.8284 29.3 94.9286V61.1429C29.3 59.3983 28.8195 57.8023 28.0275 56.6338C27.2367 55.4672 26.1128 54.7 24.8333 54.7H8.16667C6.88723 54.7 5.76328 55.4672 4.9725 56.6338C4.18052 57.8023 3.7 59.3983 3.7 61.1429V94.9286C3.7 95.8284 3.94714 96.6567 4.36214 97.2685C4.77598 97.8786 5.37914 98.3 6.08333 98.3ZM24.5333 61.4429V91.5571H8.46667V61.4429H24.5333Z" fill="white" stroke="white" stroke-width="0.6"/>
<path d="M39 98.3H59C59.6854 98.3 60.2677 97.8776 60.6646 97.2747C61.0631 96.6692 61.3 95.8504 61.3 94.9615V25.0769C61.3 23.3524 60.8391 21.7741 60.0786 20.618C59.3199 19.4645 58.2377 18.7 57 18.7H41C39.7623 18.7 38.6801 19.4645 37.9214 20.618C37.1609 21.7741 36.7 23.3524 36.7 25.0769V94.9615C36.7 95.8504 36.9369 96.6692 37.3354 97.2747C37.7323 97.8776 38.3146 98.3 39 98.3ZM56.7 25.3769V91.6231H41.3V25.3769H56.7Z" fill="white" stroke="white" stroke-width="0.6"/>
<path d="M71.0833 98.3H91.9167C92.6197 98.3 93.2228 97.8828 93.6372 97.2771C94.0526 96.6698 94.3 95.8477 94.3 94.9545V37.0909C94.3 35.3602 93.8192 33.7767 93.0268 32.6176C92.2355 31.4601 91.1116 30.7 89.8333 30.7H73.1667C71.8884 30.7 70.7645 31.4601 69.9732 32.6176C69.1808 33.7767 68.7 35.3602 68.7 37.0909V94.9545C68.7 95.8477 68.9474 96.6698 69.3628 97.2771C69.7772 97.8828 70.3803 98.3 71.0833 98.3ZM89.5333 37.3909V91.6091H73.4667V37.3909H89.5333Z" fill="white" stroke="white" stroke-width="0.6"/>
</g>
<defs>
<clipPath id="clip0">
<rect width="98" height="98" fill="white"/>
</clipPath>
</defs>
</svg>
