<svg width="90" height="90" viewBox="0 0 90 90" fill="current" xmlns="http://www.w3.org/2000/svg">
<g clip-path="url(#clip0)">
<path d="M45 36.3867C53.4326 36.3867 60.293 29.5263 60.293 21.0938C60.293 12.6612 53.4326 5.80078 45 5.80078C36.5674 5.80078 29.707 12.6612 29.707 21.0938C29.707 29.5263 36.5674 36.3867 45 36.3867ZM45 11.0742C50.5248 11.0742 55.0195 15.5689 55.0195 21.0938C55.0195 26.6186 50.5248 31.1133 45 31.1133C39.4752 31.1133 34.9805 26.6186 34.9805 21.0938C34.9805 15.5689 39.4752 11.0742 45 11.0742Z" fill="current"/>
<path d="M75.9375 36.3867C81.2684 36.3867 85.6055 32.0497 85.6055 26.7188C85.6055 21.3878 81.2684 17.0508 75.9375 17.0508C70.6066 17.0508 66.2695 21.3878 66.2695 26.7188C66.2695 32.0497 70.6066 36.3867 75.9375 36.3867ZM75.9375 22.3242C78.3606 22.3242 80.332 24.2956 80.332 26.7188C80.332 29.1419 78.3606 31.1133 75.9375 31.1133C73.5144 31.1133 71.543 29.1419 71.543 26.7188C71.543 24.2956 73.5144 22.3242 75.9375 22.3242Z" fill="current"/>
<path d="M78.0645 42.3633H73.9863C69.1806 42.3633 65.0322 45.2025 63.1419 49.2806C59.2499 45.032 53.6595 42.3633 47.4572 42.3633H42.5429C36.3407 42.3633 30.7503 45.032 26.8583 49.2806C24.9678 45.2025 20.8194 42.3633 16.0137 42.3633H11.9355C5.3543 42.3633 0 47.6852 0 54.2268V73.4238C0 76.2638 2.31926 78.5742 5.17008 78.5742H21.294C21.5643 81.7207 24.2102 84.1992 27.4257 84.1992H62.5744C65.7898 84.1992 68.4357 81.7207 68.7062 78.5742H84.6459C87.5983 78.5742 90.0002 76.1818 90.0002 73.241V54.2268C90 47.6852 84.6457 42.3633 78.0645 42.3633ZM5.27344 54.2268C5.27344 50.593 8.26207 47.6367 11.9355 47.6367H16.0137C19.6871 47.6367 22.6758 50.593 22.6758 54.2268V56.0322C20.9027 60.6489 21.2695 63.4157 21.2695 73.3008H5.27344V54.2268ZM63.457 78.0432C63.457 78.5299 63.0612 78.9258 62.5744 78.9258H27.4256C26.9388 78.9258 26.543 78.5297 26.543 78.0432V63.6367C26.543 54.8142 33.7205 47.6367 42.5428 47.6367H47.4571C56.2795 47.6367 63.457 54.8142 63.457 63.6365V78.0432ZM84.7266 73.241C84.7266 73.3319 85.7095 73.3008 68.7305 73.3008C68.7305 63.3426 69.0945 60.6414 67.3242 56.0322V54.2268C67.3242 50.593 70.3129 47.6367 73.9863 47.6367H78.0645C81.7379 47.6367 84.7266 50.593 84.7266 54.2268V73.241Z" fill="current"/>
<path d="M14.0625 36.3867C19.3934 36.3867 23.7305 32.0497 23.7305 26.7188C23.7305 21.3878 19.3934 17.0508 14.0625 17.0508C8.73158 17.0508 4.39453 21.3878 4.39453 26.7188C4.39453 32.0497 8.73158 36.3867 14.0625 36.3867ZM14.0625 22.3242C16.4856 22.3242 18.457 24.2956 18.457 26.7188C18.457 29.1419 16.4856 31.1133 14.0625 31.1133C11.6394 31.1133 9.66797 29.1419 9.66797 26.7188C9.66797 24.2956 11.6394 22.3242 14.0625 22.3242Z" fill="current"/>
</g>
<defs>
<clipPath id="clip0">
<rect width="90" height="90" fill="current"/>
</clipPath>
</defs>
</svg>
