<svg width="90" height="90" viewBox="0 0 90 90" fill="none" xmlns="http://www.w3.org/2000/svg">
<g clip-path="url(#clip0)">
<path d="M34.6873 30.0002H6.56227C2.94365 30.0002 0 27.0566 0 23.4373V6.56227C0 2.94365 2.94365 0 6.56227 0H34.6873C38.3066 0 41.2502 2.94365 41.2502 6.56227V23.4373C41.2502 27.0566 38.3066 30.0002 34.6873 30.0002ZM6.56227 5.625C6.04523 5.625 5.625 6.04523 5.625 6.56227V23.4373C5.625 23.955 6.04523 24.3752 6.56227 24.3752H34.6873C35.205 24.3752 35.6252 23.955 35.6252 23.4373V6.56227C35.6252 6.04523 35.205 5.625 34.6873 5.625H6.56227Z" fill="white"/>
<path d="M34.6873 90H6.56227C2.94365 90 0 87.0564 0 83.4377V44.0627C0 40.4434 2.94365 37.4998 6.56227 37.4998H34.6873C38.3066 37.4998 41.2502 40.4434 41.2502 44.0627V83.4377C41.2502 87.0564 38.3066 90 34.6873 90ZM6.56227 43.1248C6.04523 43.1248 5.625 43.545 5.625 44.0627V83.4377C5.625 83.9548 6.04523 84.375 6.56227 84.375H34.6873C35.205 84.375 35.6252 83.9548 35.6252 83.4377V44.0627C35.6252 43.545 35.205 43.1248 34.6873 43.1248H6.56227Z" fill="white"/>
<path d="M83.4378 90H55.3128C51.6935 90 48.7498 87.0563 48.7498 83.4377V66.5627C48.7498 62.9434 51.6935 59.9998 55.3128 59.9998H83.4378C87.0564 59.9998 90 62.9434 90 66.5627V83.4377C90 87.0563 87.0564 90 83.4378 90ZM55.3128 65.6248C54.795 65.6248 54.3748 66.045 54.3748 66.5627V83.4377C54.3748 83.9548 54.795 84.375 55.3128 84.375H83.4378C83.9548 84.375 84.375 83.9548 84.375 83.4377V66.5627C84.375 66.045 83.9548 65.6248 83.4378 65.6248H55.3128Z" fill="white"/>
<path d="M83.4378 52.5002H55.3128C51.6935 52.5002 48.7498 49.5566 48.7498 45.9373V6.56227C48.7498 2.94365 51.6935 0 55.3128 0H83.4378C87.0564 0 90 2.94365 90 6.56227V45.9373C90 49.5566 87.0564 52.5002 83.4378 52.5002ZM55.3128 5.625C54.795 5.625 54.3748 6.04523 54.3748 6.56227V45.9373C54.3748 46.455 54.795 46.8752 55.3128 46.8752H83.4378C83.9548 46.8752 84.375 46.455 84.375 45.9373V6.56227C84.375 6.04523 83.9548 5.625 83.4378 5.625H55.3128Z" fill="white"/>
</g>
<defs>
<clipPath id="clip0">
<rect width="90" height="90" fill="white"/>
</clipPath>
</defs>
</svg>
