<svg width="89" height="89" viewBox="0 0 89 89" fill="none" xmlns="http://www.w3.org/2000/svg">
<path d="M80.6562 5.5625H8.34375C3.74269 5.5625 0 9.30519 0 13.9062V25.0312C0 26.5686 1.24391 27.8125 2.78125 27.8125H5.5625V80.6562C5.5625 82.1936 6.80641 83.4375 8.34375 83.4375H80.6562C82.1936 83.4375 83.4375 82.1936 83.4375 80.6562V27.8125H86.2188C87.7561 27.8125 89 26.5686 89 25.0312V13.9062C89 9.30519 85.2573 5.5625 80.6562 5.5625ZM77.875 77.875H11.125V27.8125H77.875V77.875ZM83.4375 22.25H80.6562H8.34375H5.5625V13.9062C5.5625 12.3717 6.8092 11.125 8.34375 11.125H80.6562C82.1908 11.125 83.4375 12.3717 83.4375 13.9062V22.25Z" fill="white"/>
<path d="M36.1562 50.0625H52.8438C57.4448 50.0625 61.1875 46.3198 61.1875 41.7188C61.1875 37.1177 57.4448 33.375 52.8438 33.375H36.1562C31.5552 33.375 27.8125 37.1177 27.8125 41.7188C27.8125 46.3198 31.5552 50.0625 36.1562 50.0625ZM36.1562 38.9375H52.8438C54.3783 38.9375 55.625 40.1842 55.625 41.7188C55.625 43.2533 54.3783 44.5 52.8438 44.5H36.1562C34.6217 44.5 33.375 43.2533 33.375 41.7188C33.375 40.1842 34.6217 38.9375 36.1562 38.9375Z" fill="white"/>
</svg>
