<svg width="85" height="85" viewBox="0 0 85 85" fill="none" xmlns="http://www.w3.org/2000/svg">
<g clip-path="url(#clip0)">
<path d="M45.6417 15.9375C45.6417 17.1359 46.6141 18.1083 47.8125 18.1083C49.0109 18.1083 49.9833 17.1359 49.9833 15.9375V8.85416C49.9833 3.75293 45.8341 -0.400008 40.7292 -0.400008H19.4792C14.3742 -0.400008 10.225 3.75293 10.225 8.85416V15.9375C10.225 17.1359 11.1974 18.1083 12.3958 18.1083C13.5942 18.1083 14.5667 17.1359 14.5667 15.9375V8.85416C14.5667 6.14611 16.7711 3.94166 19.4792 3.94166H40.7292C43.4372 3.94166 45.6417 6.14611 45.6417 8.85416V15.9375Z" fill="white" stroke="white" stroke-width="0.8"/>
<path d="M8.85417 78.3167H30.1042C31.3026 78.3167 32.275 77.3442 32.275 76.1458C32.275 74.9474 31.3026 73.975 30.1042 73.975H8.85417C6.14612 73.975 3.94167 71.7705 3.94167 69.0625V23.0208C3.94167 20.3128 6.14612 18.1083 8.85417 18.1083H51.3542C54.0622 18.1083 56.2667 20.3128 56.2667 23.0208V33.6458C56.2667 34.8442 57.2391 35.8167 58.4375 35.8167C59.6359 35.8167 60.6083 34.8442 60.6083 33.6458V23.0208C60.6083 17.9196 56.4591 13.7667 51.3542 13.7667H8.85417C3.74919 13.7667 -0.4 17.9196 -0.4 23.0208V69.0625C-0.4 74.1637 3.74919 78.3167 8.85417 78.3167Z" fill="white" stroke="white" stroke-width="0.8"/>
<path d="M66.6251 45.3756L45.3757 66.6251C43.7786 68.2255 42.9 70.3446 42.9 72.6042C42.9 77.2638 46.6913 81.0583 51.3542 81.0583C53.6102 81.0583 55.7327 80.1798 57.333 78.583L66.6251 45.3756ZM66.6251 45.3756C68.2255 43.7787 70.3481 42.9 72.6042 42.9M66.6251 45.3756L72.6042 42.9M72.6042 42.9C77.2672 42.9 81.0584 46.6946 81.0584 51.3542C81.0584 53.6136 80.1799 55.7326 78.583 57.333L72.6042 42.9ZM63.556 42.3055L63.5557 42.3057L42.3057 63.5557C39.8897 65.9718 38.5584 69.1867 38.5584 72.6042C38.5584 79.6605 44.2979 85.4 51.3542 85.4C54.7719 85.4 57.9831 84.0686 60.4025 81.6529L60.4027 81.6527L81.6527 60.4026C84.0688 57.9866 85.4 54.7717 85.4 51.3542C85.4 44.2978 79.6605 38.5583 72.6042 38.5583C69.1865 38.5583 65.9754 39.8897 63.556 42.3055ZM78.5827 57.3333L57.3333 78.5827L78.5827 57.3333Z" fill="white" stroke="white" stroke-width="0.8"/>
<path d="M52.9183 55.4364L52.6355 55.7193L52.9183 56.0021L67.9419 71.0256L68.2247 71.3085L68.5075 71.0256L71.0119 68.5213L71.2947 68.2385L71.0119 67.9556L55.9884 52.9321L55.7055 52.6493L55.4227 52.9321L52.9183 55.4364Z" fill="white" stroke="white" stroke-width="0.8"/>
<path d="M1.77083 60.6083H26.5625C31.6675 60.6083 35.8167 56.4554 35.8167 51.3542V40.7292C35.8167 35.6279 31.6675 31.475 26.5625 31.475H1.77083C0.572419 31.475 -0.4 32.4474 -0.4 33.6458C-0.4 34.8442 0.572419 35.8167 1.77083 35.8167H26.5625C29.2705 35.8167 31.475 38.0211 31.475 40.7292V51.3542C31.475 54.0622 29.2705 56.2667 26.5625 56.2667H1.77083C0.57242 56.2667 -0.4 57.2391 -0.4 58.4375C-0.4 59.6359 0.572419 60.6083 1.77083 60.6083Z" fill="white" stroke="white" stroke-width="0.8"/>
</g>
<defs>
<clipPath id="clip0">
<rect width="85" height="85" fill="white"/>
</clipPath>
</defs>
</svg>
