<svg width="90" height="90" viewBox="0 0 90 90" fill="none" xmlns="http://www.w3.org/2000/svg">
<path d="M63.1262 64.887H63.1258C58.3154 64.887 54.4152 68.7859 54.4152 73.5964C54.4152 78.408 58.3141 82.3076 63.1246 82.3076C67.9362 82.3076 71.8353 78.408 71.8353 73.5976V73.5973C71.831 68.7883 67.934 64.8919 63.1262 64.887ZM63.1246 69.4081H63.1248C65.4389 69.407 67.3139 71.2833 67.3142 73.596C67.3115 75.9091 65.4379 77.7828 63.1252 77.7865C60.8109 77.7862 58.9363 75.9108 58.9363 73.5976C58.9363 71.2836 60.8114 69.4081 63.1246 69.4081Z" fill="current" stroke="white" stroke-width="0.8"/>
<path d="M9.22036 11.6774V11.6774H4.69137C3.44313 11.6774 2.43112 10.6654 2.43112 9.41712C2.43112 8.16838 3.44304 7.15628 4.69137 7.15628H9.21954C13.6443 7.13844 17.5048 10.1583 18.5516 14.4586C18.5516 14.4588 18.5517 14.459 18.5517 14.4592L19.6379 18.8778H85.3417C86.0272 18.8681 86.6785 19.1728 87.1107 19.704L87.1109 19.7042C87.542 20.2348 87.7034 20.9339 87.5486 21.5991C87.5486 21.5992 87.5486 21.5994 87.5485 21.5995L80.5353 52.2533L9.22036 11.6774ZM9.22036 11.6774L9.22359 11.6774M9.22036 11.6774L9.22359 11.6774M9.22359 11.6774C11.5612 11.6585 13.6056 13.2504 14.1611 15.5219L14.1611 15.522M9.22359 11.6774L14.1611 15.522M14.1611 15.522L23.1947 52.4134L23.1947 52.4134M14.1611 15.522L23.1947 52.4134M23.1947 52.4134C24.2468 56.7057 28.1103 59.7127 32.5287 59.6796M23.1947 52.4134L32.5287 59.6796M32.5287 59.6796H71.168C75.6482 59.7146 79.547 56.6234 80.5351 52.2543L32.5287 59.6796ZM76.1285 51.2581L76.1284 51.2585C75.6033 53.5641 73.5393 55.1893 71.1745 55.1585H71.1693L32.5277 55.1585L32.5233 55.1586C30.1893 55.1839 28.1442 53.5993 27.5868 51.3327L20.7444 23.3988H82.5081L76.1285 51.2581Z" fill="current" stroke="white" stroke-width="0.8"/>
<path d="M37.9598 64.887H37.9594C33.1491 64.887 29.2488 68.7859 29.2488 73.5964C29.2488 78.408 33.1484 82.3076 37.9588 82.3076C42.7698 82.3076 46.6694 78.4081 46.6694 73.5976V73.5973C46.6652 68.7882 42.7682 64.8919 37.9598 64.887ZM37.9588 69.4081H37.959C40.2726 69.407 42.1481 71.2833 42.1484 73.596C42.1457 75.9091 40.2715 77.7828 37.9588 77.7865C35.6451 77.7862 33.7699 75.9107 33.7699 73.5976C33.7699 71.2836 35.6455 69.4081 37.9588 69.4081Z" fill="current" stroke="white" stroke-width="0.8"/>
</svg>
