<svg width="92" height="92" viewBox="0 0 92 92" fill="none" xmlns="http://www.w3.org/2000/svg">
<g clip-path="url(#clip0)">
<path d="M32.5833 27.1333H59.4166C62.7525 27.1333 65.4666 24.4192 65.4666 21.0833C65.4666 17.7475 62.7525 15.0333 59.4166 15.0333H32.5833C29.2475 15.0333 26.5333 17.7475 26.5333 21.0833C26.5333 24.4192 29.2475 27.1333 32.5833 27.1333ZM30.9666 21.0833C30.9666 20.1945 31.6914 19.4667 32.5833 19.4667H59.4166C60.3086 19.4667 61.0333 20.1945 61.0333 21.0833C61.0333 21.9722 60.3086 22.7 59.4166 22.7H32.5833C31.6914 22.7 30.9666 21.9722 30.9666 21.0833Z" fill="current" stroke="white" stroke-width="0.6"/>
<path d="M53.8498 18.6329L53.85 18.6332C54.2889 19.1829 54.9326 19.4667 55.5833 19.4667C56.0711 19.4667 56.5582 19.3068 56.9684 18.9848L56.9705 18.9831L67.6042 10.4769L67.4168 10.2427L67.6042 10.4769C69.6395 8.8487 70.3986 6.20414 69.5361 3.74551L69.536 3.74536C68.6735 1.29068 66.4286 -0.300015 63.825 -0.300015H28.1788C25.5752 -0.300015 23.3303 1.29068 22.4678 3.74536L22.4677 3.74551C21.6052 6.20414 22.3643 8.8487 24.3996 10.4769L24.3996 10.4769L35.0332 18.9831L35.0338 18.9835C35.9906 19.7454 37.3866 19.5911 38.1497 18.6372L38.1502 18.6367C38.9124 17.6794 38.7572 16.2878 37.8046 15.5213L37.8039 15.5207L27.1702 7.01455L27.1694 7.01394C26.3385 6.35368 26.5563 5.48444 26.6523 5.21387L26.653 5.21179C26.7447 4.94666 27.118 4.13332 28.1788 4.13332H63.8212C64.8821 4.13332 65.2554 4.94677 65.3474 5.20909L65.3477 5.21004C65.4432 5.47955 65.6583 6.34984 64.8301 7.01046L64.8298 7.01072L54.1961 15.5169L54.1954 15.5174C53.2428 16.284 53.0875 17.6756 53.8498 18.6329Z" fill="current" stroke="white" stroke-width="0.6"/>
<path d="M38.3334 71.2166H47.9167C52.3105 71.2166 55.8833 67.6438 55.8833 63.25C55.8833 58.8561 52.3105 55.2833 47.9167 55.2833H44.0833C42.1367 55.2833 40.55 53.7001 40.55 51.75C40.55 49.7999 42.1367 48.2167 44.0833 48.2167H53.6667C54.8904 48.2167 55.8833 47.2237 55.8833 46C55.8833 44.7763 54.8904 43.7833 53.6667 43.7833H44.0833C39.6895 43.7833 36.1167 47.3561 36.1167 51.75C36.1167 56.1438 39.6895 59.7167 44.0833 59.7167H47.9167C49.8634 59.7167 51.45 61.2999 51.45 63.25C51.45 65.2001 49.8634 66.7833 47.9167 66.7833H38.3334C37.1097 66.7833 36.1167 67.7763 36.1167 69C36.1167 70.2237 37.1097 71.2166 38.3334 71.2166Z" fill="current" stroke="white" stroke-width="0.6"/>
<path d="M43.7833 74.75C43.7833 75.9737 44.7763 76.9667 46 76.9667C47.2237 76.9667 48.2166 75.9737 48.2166 74.75V69C48.2166 67.7763 47.2237 66.7833 46 66.7833C44.7763 66.7833 43.7833 67.7763 43.7833 69V74.75Z" fill="current" stroke="white" stroke-width="0.6"/>
<path d="M43.7833 46C43.7833 47.2237 44.7763 48.2167 46 48.2167C47.2237 48.2167 48.2166 47.2237 48.2166 46V40.25C48.2166 39.0263 47.2237 38.0333 46 38.0333C44.7763 38.0333 43.7833 39.0263 43.7833 40.25V46Z" fill="current" stroke="white" stroke-width="0.6"/>
<path d="M33.6855 23.0017L33.6849 23.002C20.6334 30.6643 11.2 49.2021 11.2 67.0833C11.2 73.331 12.8418 79.6273 16.3392 84.37C19.8443 89.1232 25.2034 92.3 32.5833 92.3H59.4167C66.7966 92.3 72.1557 89.1232 75.6608 84.37C79.1582 79.6273 80.8 73.331 80.8 67.0833C80.8 49.2021 71.3666 30.6643 58.3151 23.002V23.002L58.3145 23.0017C57.9724 22.8017 57.5865 22.7 57.1933 22.7H34.8067C34.4135 22.7 34.0276 22.8017 33.6855 23.0017ZM15.6333 67.0833C15.6333 50.8795 23.95 34.2 35.4204 27.1333H56.5796C68.05 34.2 76.3667 50.8795 76.3667 67.0833C76.3667 71.9065 75.2448 77.1135 72.5665 81.1048C69.8978 85.0818 65.6763 87.8667 59.4167 87.8667H32.5833C26.3237 87.8667 22.1022 85.0818 19.4335 81.1048C16.7552 77.1135 15.6333 71.9065 15.6333 67.0833Z" fill="current" stroke="white" stroke-width="0.6"/>
</g>
<defs>
<clipPath id="clip0">
<rect width="92" height="92" fill="white"/>
</clipPath>
</defs>
</svg>
