<svg width="90" height="90" viewBox="0 0 90 90" fill="none" xmlns="http://www.w3.org/2000/svg">
<g clip-path="url(#clip0)">
<path d="M47.8241 90H42.1757C37.6073 90 33.8904 86.2833 33.8904 81.7149V79.804C31.9482 79.1835 30.0612 78.4002 28.2484 77.4621L26.8942 78.8163C23.6143 82.1002 18.3604 82.0039 15.1757 78.815L11.1836 74.823C7.9933 71.6363 7.90154 66.3841 11.1846 63.1046L12.5378 61.7514C11.5996 59.9386 10.8165 58.0519 10.1958 56.1094H8.2851C3.71689 56.1094 0 52.3927 0 47.8243V42.1757C0 37.6073 3.71689 33.8906 8.28527 33.8906H10.196C10.8167 31.9482 11.5998 30.0614 12.5379 28.2486L11.1837 26.8945C7.9026 23.6169 7.99313 18.3642 11.1848 15.1761L15.1773 11.1837C18.3693 7.98732 23.622 7.90752 26.8956 11.1848L28.2486 12.5378C30.0614 11.5998 31.9484 10.8165 33.8906 10.1958V8.2851C33.8906 3.71672 37.6073 0 42.1759 0H47.8243C52.3927 0 56.1094 3.71672 56.1094 8.2851V10.196C58.0516 10.8165 59.9386 11.5998 61.7514 12.5379L63.1056 11.1837C66.3856 7.89979 71.6395 7.99611 74.8241 11.185L78.8163 15.177C82.0065 18.3637 82.0983 23.6159 78.8152 26.8954L77.4621 28.2486C78.4002 30.0614 79.1833 31.9481 79.804 33.8906H81.7147C86.2831 33.8906 90 37.6073 90 42.1757V47.8243C90 52.3927 86.2831 56.1094 81.7147 56.1094H79.804C79.1833 58.0518 78.4002 59.9386 77.4621 61.7514L78.8163 63.1056C82.0974 66.3833 82.0069 71.636 78.8152 74.8241L74.8227 78.8164C71.6307 82.0128 66.378 82.0927 63.1044 78.8154L61.7514 77.4624C59.9386 78.4004 58.0516 79.1836 56.1094 79.8043V81.7152C56.1094 86.2833 52.3927 90 47.8241 90ZM29.1299 71.9244C31.6484 73.4138 34.3589 74.539 37.1862 75.2687C38.3505 75.5691 39.1641 76.6192 39.1641 77.8217V81.7149C39.1641 83.3755 40.5153 84.7266 42.1759 84.7266H47.8243C49.4849 84.7266 50.8361 83.3755 50.8361 81.7149V77.8217C50.8361 76.6192 51.6496 75.5691 52.814 75.2687C55.6413 74.539 58.3518 73.4138 60.8702 71.9244C61.9065 71.3116 63.2257 71.4783 64.077 72.3296L66.8347 75.0874C68.0237 76.2778 69.933 76.2502 71.0928 75.0887L75.0878 71.0938C76.2448 69.9383 76.2834 68.0286 75.0888 66.8355L72.3299 64.0767C71.4788 63.2255 71.3122 61.9061 71.9248 60.8701C73.4142 58.3518 74.5392 55.6413 75.2688 52.8138C75.5694 51.6495 76.6195 50.8361 77.8219 50.8361H81.7149C83.3755 50.8361 84.7267 49.4851 84.7267 47.8245V42.1759C84.7267 40.5153 83.3755 39.1642 81.7149 39.1642H77.8219C76.6194 39.1642 75.5694 38.3507 75.2688 37.1865C74.5392 34.3591 73.414 31.6485 71.9248 29.1303C71.3122 28.0942 71.4788 26.7748 72.3299 25.9237L75.0878 23.1659C76.2799 21.9751 76.2488 20.0661 75.0888 18.9076L71.0942 14.9129C69.9363 13.7535 68.0266 13.7196 66.8359 14.9119L64.0772 17.6708C63.2261 18.5221 61.9063 18.6887 60.8704 18.0759C58.352 16.5865 55.6414 15.4614 52.8142 14.7317C51.6498 14.4313 50.8363 13.3812 50.8363 12.1787V8.2851C50.8363 6.62449 49.4851 5.27344 47.8245 5.27344H42.1761C40.5155 5.27344 39.1642 6.62449 39.1642 8.2851V12.1783C39.1642 13.3808 38.3507 14.4309 37.1863 14.7313C34.3591 15.461 31.6485 16.5862 29.1301 18.0756C28.0937 18.6882 26.7745 18.5215 25.9233 17.6704L23.1657 14.9126C21.9767 13.7222 20.0672 13.7498 18.9076 14.9113L14.9126 18.9062C13.7556 20.0617 13.7169 21.9713 14.9115 23.1645L17.6704 25.9233C18.5215 26.7745 18.6882 28.0939 18.0756 29.1299C16.5862 31.6482 15.4612 34.3587 14.7315 37.1862C14.4309 38.3505 13.3808 39.1639 12.1785 39.1639H8.28527C6.62467 39.1641 5.27344 40.5151 5.27344 42.1757V47.8243C5.27344 49.4849 6.62467 50.8359 8.28527 50.8359H12.1783C13.3808 50.8359 14.4308 51.6495 14.7313 52.8137C15.461 55.6411 16.5862 58.3516 18.0754 60.8699C18.688 61.9059 18.5214 63.2253 17.6702 64.0765L14.9124 66.8343C13.7203 68.0251 13.7514 69.934 14.9113 71.0926L18.906 75.0872C20.0638 76.2467 21.9735 76.2806 23.1643 75.0883L25.923 72.3294C26.5502 71.7024 27.855 71.1703 29.1299 71.9244Z" fill="white"/>
<path d="M45 64.582C34.2023 64.582 25.418 55.7975 25.418 45C25.418 34.2025 34.2023 25.418 45 25.418C55.7977 25.418 64.582 34.2025 64.582 45C64.582 55.7975 55.7977 64.582 45 64.582ZM45 30.6914C37.1101 30.6914 30.6914 37.1102 30.6914 45C30.6914 52.8898 37.1102 59.3086 45 59.3086C52.8898 59.3086 59.3086 52.8898 59.3086 45C59.3086 37.1102 52.8899 30.6914 45 30.6914Z" fill="white"/>
</g>
<defs>
<clipPath id="clip0">
<rect width="90" height="90" fill="white"/>
</clipPath>
</defs>
</svg>
