<svg width="103" height="103" viewBox="0 0 103 103" fill="none" xmlns="http://www.w3.org/2000/svg">
<path d="M86.4005 36.5488L86.4004 36.5489L86.4066 36.5544L92.719 42.2377C92.7191 42.2378 92.7193 42.2379 92.7194 42.2381C93.0868 42.5707 93.2959 43.0427 93.2959 43.5301V55.0445C93.2959 56.0047 92.5088 56.7918 91.5486 56.7918H74.4763C73.516 56.7918 72.7289 56.0047 72.7289 55.0445V37.8464C72.7289 36.8861 73.516 36.099 74.4763 36.099H85.2356C85.6763 36.099 86.092 36.2574 86.4005 36.5488ZM89.4512 53.2972H89.8012V52.9472V44.453V44.2971L89.6854 44.1928L84.6518 39.6626L84.5519 39.5727H84.4176H76.5736H76.2236V39.9227V52.9472V53.2972H76.5736H89.4512ZM14.4362 70.3131V70.6631H14.7862H19.0018C19.9621 70.6631 20.7492 71.4502 20.7492 72.4104C20.7492 73.3706 19.9621 74.1577 19.0018 74.1577H12.6889C11.7286 74.1577 10.9415 73.3706 10.9415 72.4104V64.7342C10.9415 63.7739 11.7286 62.9868 12.6889 62.9868C13.6491 62.9868 14.4362 63.7739 14.4362 64.7342V70.3131ZM6.35694 50.9612H6.35492C5.39578 50.9612 4.61105 50.1766 4.6285 49.1992H4.62856V49.1929C4.62856 48.2373 5.41106 47.4666 6.37589 47.4666H6.37591H6.37592H6.37594H6.37595H6.37597H6.37599H6.376H6.37602H6.37604H6.37606H6.37607H6.37609H6.3761H6.37612H6.37614H6.37616H6.37618H6.3762H6.37622H6.37623H6.37625H6.37627H6.37628H6.3763H6.37632H6.37634H6.37636H6.37638H6.3764H6.37642H6.37644H6.37646H6.37648H6.37651H6.37653H6.37655H6.37658H6.37661H6.37663H6.37666H6.37669H6.37671H6.37674H6.37676H6.37677H6.37679H6.3768H6.37682H6.37683H6.37685H6.37686H6.37688H6.3769H6.37691H6.37693H6.37695H6.37696H6.37698H6.377H6.37701H6.37703H6.37705H6.37707H6.37709H6.3771H6.37712H6.37714H6.37716H6.37718H6.3772H6.37722H6.37724H6.37726H6.37728H6.3773H6.37732H6.37734H6.37736H6.37738H6.3774H6.37742H6.37744H6.37747H6.37749H6.37751H6.37753H6.37755H6.37758H6.3776H6.37762H6.37765H6.37767H6.37769H6.37772H6.37774H6.37777H6.37779H6.37782H6.37784H6.37787H6.37789H6.37792H6.37794H6.37797H6.378H6.37802H6.37805H6.37808H6.37811H6.37813H6.37816H6.37819H6.37822H6.37825H6.37827H6.3783H6.37833H6.37836H6.37839H6.37842H6.37845H6.37848H6.37851H6.37854H6.37857H6.37861H6.37864H6.37867H6.3787H6.37873H6.37877H6.3788H6.37883H6.37887H6.3789H6.37893H6.37897H6.379H6.37904H6.37907H6.37911H6.37914H6.37918H6.37921H6.37925H6.37928H6.37932H6.37936H6.3794H6.37943H6.37947H6.37951H6.37955H6.37958H6.37962H6.37966H6.3797H6.37974H6.37978H6.37982H6.37986H6.3799H6.37994H6.37998H6.38003H6.38007H6.38011H6.38015H6.38019H6.38024H6.38028H6.38032H6.38037H6.38041H6.38046H6.3805H6.38055H6.38059H6.38064H6.38068H6.38073H6.38077H6.38082H6.38087H6.38092H6.38096H6.38101H6.38106H6.38111H6.38116H6.38121H6.38126H6.3813H6.38135H6.3814H6.38146H6.38151H6.38156H6.38161H6.38166H6.38171H6.38177H6.38182H6.38187H6.38192H6.38198H6.38203H6.38209H6.38214H6.3822H6.38225H6.38231H6.38236H6.38242H6.38248H6.38253H6.38259H6.38265H6.38271H6.38276H6.38282H6.38288H6.38294H6.383H6.38306H6.38312H6.38318H6.38324H6.3833H6.38337H6.38343H6.38349H6.38355H6.38362H6.38368H6.38374H6.38381H6.38387H6.38393H6.384H6.38407H6.38413H6.3842H6.38426H6.38433H6.3844H6.38447H6.38453H6.3846H6.38467H6.38474H6.38481H6.38488H6.38495H6.38502H6.38509H6.38516H6.38523H6.3853H6.38538H6.38545H6.38552H6.38559H6.38567H6.38574H6.38582H6.38589H6.38597H6.38604H6.38612H6.38619H6.38627H6.38635H6.38643H6.3865H6.38658H6.38666H6.38674H6.38682H6.3869H6.38698H6.38706H6.38714H6.38722H6.3873H6.38739H6.38747H6.38755H6.38763H6.38772H6.3878H6.38789H6.38797H6.38806H6.38814H6.38823H6.38831H6.3884H6.38849H6.38858H6.38866H6.38875H6.38884H6.38893H6.38902H6.38911H6.3892H6.38929H6.38938H6.38948H6.38957H6.38966H6.38975H6.38985H6.38994H6.39004H6.39013H6.39023H6.39032H6.39042H6.39051H6.39061H6.39071H6.39081H6.3909H6.391H6.3911H6.3912H6.3913H6.3914H6.3915H6.3916H6.3917H6.39181H6.39191H6.39201H6.39211H6.39222H6.39232H6.39243H6.39253H6.39264H6.39274H6.39285H6.39296H6.39306H6.39317H6.39328H6.39339H6.3935H6.39361H6.39372H6.39383H6.39394H6.39405H6.39416H6.39428H6.39439H6.3945H6.39461H6.39473H6.39484H6.39496H6.39507H6.39519H6.39531H6.39542H6.39554H6.39566H6.39578H6.3959H6.39602H6.39614H6.39626H6.39638H6.3965H6.39662H6.39674H6.39686L31.8355 47.6134H31.8375C32.7966 47.6134 33.5813 48.3979 33.5639 49.3753C33.5464 50.3368 32.7598 51.1074 31.7968 51.1081C31.7964 51.1081 31.796 51.1081 31.7956 51.1081L6.35694 50.9612ZM102.001 39.2275L102.001 39.2278C102.397 39.5548 102.63 40.0622 102.65 40.599L102.482 72.3876V72.3894C102.482 73.3451 101.7 74.1158 100.735 74.1158H96.4773C95.5171 74.1158 94.73 73.3287 94.73 72.3685C94.73 71.4082 95.5171 70.6211 96.4773 70.6211H98.6585H99.0067L99.0085 70.2729L99.1553 41.5604L99.1562 41.3948L99.0286 41.2891L85.354 29.9635L85.2568 29.8831H85.1307H68.2262H67.8762V30.2331V70.3131V70.6631H68.2262H72.4419C73.4021 70.6631 74.1892 71.4502 74.1892 72.4104C74.1892 73.3706 73.4021 74.1577 72.4419 74.1577H46.8334C45.8732 74.1577 45.0861 73.3706 45.0861 72.4104C45.0861 71.4502 45.8732 70.6631 46.8334 70.6631H64.0316H64.3816V70.3131V20.5853V20.2353H64.0316H14.7862H14.4362V20.5853V33.8405C14.4362 34.8007 13.6491 35.5878 12.6889 35.5878C11.7286 35.5878 10.9415 34.8007 10.9415 33.8405V18.488C10.9415 17.5278 11.7286 16.7407 12.6889 16.7407H66.1079C67.0682 16.7407 67.8553 17.5278 67.8553 18.488V26.0384V26.3884H68.2053H85.8648C86.287 26.3884 86.6689 26.5279 86.983 26.7897L86.9838 26.7903L102.001 39.2275ZM77.7431 70.7501C79.4818 69.0321 81.7842 68.0834 84.2079 68.0834C89.171 68.0834 93.212 72.1602 93.212 77.1714C93.212 82.1825 89.171 86.2594 84.2079 86.2594C81.7853 86.2594 79.5026 85.3114 77.7416 83.5911C75.983 81.8522 75.036 79.5928 75.036 77.1714C75.036 74.7516 76.0028 72.4909 77.7431 70.7501ZM78.5307 77.1714C78.5307 80.2224 81.1257 82.7647 84.2079 82.7647C87.2591 82.7647 89.7173 80.2534 89.7173 77.1714C89.7173 74.0893 87.2591 71.578 84.2079 71.578C81.1257 71.578 78.5307 74.1203 78.5307 77.1714ZM26.5264 70.75C28.265 69.032 30.5674 68.0834 32.991 68.0834C37.9541 68.0834 41.9951 72.1602 41.9951 77.1714C41.9951 82.1825 37.9541 86.2594 32.991 86.2594C30.5685 86.2594 28.2859 85.3114 26.5249 83.5912C24.7662 81.8524 23.8192 79.5929 23.8192 77.1714C23.8192 74.7515 24.786 72.4907 26.5264 70.75ZM27.3138 77.1714C27.3138 80.2224 29.9088 82.7647 32.991 82.7647C36.0422 82.7647 38.5005 80.2534 38.5005 77.1714C38.5005 74.0893 36.0422 71.578 32.991 71.578C29.9088 71.578 27.3138 74.1203 27.3138 77.1714ZM27.538 57.1353C28.4982 57.1353 29.2853 57.9224 29.2853 58.8826C29.2853 59.8615 28.5005 60.6299 27.538 60.6299H2.09733C1.1371 60.6299 0.35 59.8428 0.35 58.8826C0.35 57.9224 1.1371 57.1353 2.09733 57.1353H27.538ZM36.0741 41.4394H10.6335C9.67324 41.4394 8.88614 40.6523 8.88614 39.692C8.88614 38.7318 9.67324 37.9447 10.6335 37.9447H36.0741C37.0344 37.9447 37.8214 38.7318 37.8214 39.692C37.8214 40.6523 37.0344 41.4394 36.0741 41.4394Z" fill="current" stroke="white" stroke-width="0.7"/>
</svg>
